<svg width="630" height="250" viewBox="0 0 630 250" fill="none" xmlns="http://www.w3.org/2000/svg">
<rect x="423" y="44" width="164" height="164" rx="47" fill="#009839" stroke="#009839" stroke-width="6"/>
<path d="M545.5 171C537.5 171 531.627 169.124 527.318 165.372C523.106 161.524 521 155.945 521 148.633L521 114H504L504 98H521L521 81L539.039 76L539.039 98H560L560 114H539.039V144.593C539.039 148.056 539.805 150.557 541.337 152.097C542.868 153.54 545.549 154.261 549.378 154.261C551.293 154.261 553.016 154.165 554.548 153.973C556.175 153.684 557.947 153.203 559.861 152.53V168.836C557.851 169.509 555.314 170.038 552.25 170.423C549.283 170.808 547.606 171 545.5 171Z" fill="white"/>
<path d="M450 154C450 155.105 450.895 156 452 156H456V166C456 168.761 458.239 171 461 171C463.761 171 466 168.761 466 166V156L474 156V166C474 168.761 476.239 171 479 171C481.761 171 484 168.761 484 166V156H488C489.105 156 490 155.105 490 154V141C490 132.716 483.284 126 475 126H465C456.716 126 450 132.716 450 141V154Z" fill="white"/>
<path d="M467.689 120.866C463.942 120.43 460.394 118.943 457.455 116.576C456.654 115.931 455.152 114.451 454.423 113.547C452.057 110.609 450.57 107.061 450.134 103.313C449.698 99.5656 450.331 95.771 451.959 92.3678C453.588 88.9645 456.145 86.0912 459.337 84.0797C462.529 82.0682 466.259 81 469.997 81H484.999C486.326 81 487.597 81.5269 488.535 82.4648C489.473 83.4027 490 84.6747 490 86.0011V100.999C490 104.772 488.933 108.468 486.922 111.66C484.911 114.853 482.037 117.411 478.634 119.04C475.231 120.669 471.437 121.302 467.689 120.866Z" fill="white"/>
<path d="M129.958 90L138.142 70.0402H143.759L151.829 90H146.525L144.7 85.1811H136.916L135.062 90H129.958ZM138.399 81.2747H143.246L140.851 74.8876L138.399 81.2747ZM166.188 90.2851C164.572 90.2851 162.975 89.9905 161.397 89.4012C159.82 88.8119 158.413 87.9945 157.177 86.949L159.915 83.3848C161.131 84.3732 162.253 85.0861 163.279 85.5233C164.306 85.9415 165.399 86.1506 166.558 86.1506C167.319 86.1506 167.965 86.0746 168.497 85.9225C169.03 85.7704 169.438 85.5518 169.723 85.2667C170.009 84.9625 170.151 84.6109 170.151 84.2117C170.151 83.6604 169.942 83.2327 169.524 82.9285C169.106 82.6244 168.393 82.3868 167.385 82.2157L162.994 81.4458C161.378 81.1607 160.133 80.5429 159.259 79.5924C158.384 78.6419 157.947 77.4348 157.947 75.9711C157.947 74.6785 158.27 73.5664 158.917 72.635C159.582 71.7035 160.523 70.9907 161.739 70.4964C162.975 70.0022 164.439 69.7551 166.131 69.7551C167.613 69.7551 169.106 70.0117 170.607 70.5249C172.109 71.0192 173.411 71.713 174.514 72.6065L171.919 76.2277C169.866 74.65 167.822 73.8611 165.788 73.8611C165.123 73.8611 164.543 73.9371 164.049 74.0892C163.574 74.2223 163.203 74.4219 162.937 74.688C162.69 74.9351 162.566 75.2393 162.566 75.6004C162.566 76.0947 162.747 76.4749 163.108 76.741C163.488 77.0071 164.097 77.2162 164.933 77.3683L169.068 78.0526C170.987 78.3568 172.442 78.9936 173.43 79.9631C174.438 80.9326 174.941 82.1872 174.941 83.7269C174.941 85.0766 174.59 86.2457 173.886 87.2341C173.183 88.2036 172.176 88.9545 170.864 89.4867C169.552 90.019 167.994 90.2851 166.188 90.2851ZM189.949 90.2851C188.333 90.2851 186.736 89.9905 185.159 89.4012C183.581 88.8119 182.174 87.9945 180.939 86.949L183.676 83.3848C184.892 84.3732 186.014 85.0861 187.041 85.5233C188.067 85.9415 189.16 86.1506 190.32 86.1506C191.08 86.1506 191.726 86.0746 192.259 85.9225C192.791 85.7704 193.2 85.5518 193.485 85.2667C193.77 84.9625 193.912 84.6109 193.912 84.2117C193.912 83.6604 193.703 83.2327 193.285 82.9285C192.867 82.6244 192.154 82.3868 191.147 82.2157L186.755 81.4458C185.14 81.1607 183.894 80.5429 183.02 79.5924C182.146 78.6419 181.708 77.4348 181.708 75.9711C181.708 74.6785 182.032 73.5664 182.678 72.635C183.343 71.7035 184.284 70.9907 185.501 70.4964C186.736 70.0022 188.2 69.7551 189.892 69.7551C191.375 69.7551 192.867 70.0117 194.369 70.5249C195.87 71.0192 197.172 71.713 198.275 72.6065L195.68 76.2277C193.627 74.65 191.584 73.8611 189.55 73.8611C188.884 73.8611 188.305 73.9371 187.81 74.0892C187.335 74.2223 186.964 74.4219 186.698 74.688C186.451 74.9351 186.328 75.2393 186.328 75.6004C186.328 76.0947 186.508 76.4749 186.869 76.741C187.25 77.0071 187.858 77.2162 188.694 77.3683L192.829 78.0526C194.749 78.3568 196.203 78.9936 197.191 79.9631C198.199 80.9326 198.703 82.1872 198.703 83.7269C198.703 85.0766 198.351 86.2457 197.648 87.2341C196.944 88.2036 195.937 88.9545 194.625 89.4867C193.314 90.019 191.755 90.2851 189.949 90.2851ZM216.027 90.3137C214.525 90.3137 213.128 90.057 211.835 89.5438C210.542 89.0115 209.411 88.2797 208.442 87.3482C207.472 86.3977 206.712 85.3047 206.161 84.0691C205.628 82.8145 205.362 81.4648 205.362 80.0201C205.362 78.5754 205.628 77.2352 206.161 75.9996C206.712 74.745 207.472 73.652 208.442 72.7205C209.411 71.7701 210.542 71.0382 211.835 70.5249C213.128 69.9927 214.525 69.7266 216.027 69.7266C217.528 69.7266 218.925 69.9927 220.218 70.5249C221.511 71.0382 222.642 71.7701 223.611 72.7205C224.581 73.652 225.332 74.745 225.864 75.9996C226.415 77.2352 226.691 78.5754 226.691 80.0201C226.691 81.4648 226.415 82.8145 225.864 84.0691C225.332 85.3047 224.581 86.3977 223.611 87.3482C222.642 88.2797 221.511 89.0115 220.218 89.5438C218.925 90.057 217.528 90.3137 216.027 90.3137ZM216.027 85.8084C216.825 85.8084 217.566 85.6659 218.251 85.3807C218.935 85.0766 219.524 84.6679 220.018 84.1546C220.532 83.6414 220.931 83.0331 221.216 82.3297C221.501 81.6074 221.644 80.8375 221.644 80.0201C221.644 79.1837 221.501 78.4138 221.216 77.7105C220.931 77.0071 220.532 76.3988 220.018 75.8856C219.524 75.3723 218.935 74.9731 218.251 74.688C217.566 74.3838 216.825 74.2318 216.027 74.2318C215.228 74.2318 214.487 74.3838 213.802 74.688C213.118 74.9731 212.519 75.3723 212.006 75.8856C211.512 76.3988 211.122 77.0071 210.837 77.7105C210.552 78.4138 210.409 79.1837 210.409 80.0201C210.409 80.8375 210.552 81.6074 210.837 82.3297C211.122 83.0331 211.512 83.6414 212.006 84.1546C212.519 84.6679 213.118 85.0766 213.802 85.3807C214.487 85.6659 215.228 85.8084 216.027 85.8084ZM244.439 90.2851C242.919 90.2851 241.502 90.0285 240.191 89.5153C238.898 88.983 237.767 88.2511 236.798 87.3197C235.828 86.3882 235.068 85.3047 234.517 84.0691C233.984 82.8145 233.718 81.4648 233.718 80.0201C233.718 78.5564 233.984 77.2067 234.517 75.9711C235.068 74.7165 235.828 73.6235 236.798 72.692C237.786 71.7606 238.927 71.0382 240.219 70.5249C241.531 69.9927 242.938 69.7266 244.439 69.7266C245.542 69.7266 246.625 69.8881 247.69 70.2113C248.754 70.5344 249.733 70.9907 250.627 71.58C251.539 72.1502 252.3 72.8346 252.908 73.633L249.6 76.8836C248.897 75.9901 248.108 75.3248 247.234 74.8876C246.378 74.4504 245.447 74.2318 244.439 74.2318C243.641 74.2318 242.89 74.3838 242.187 74.688C241.502 74.9731 240.904 75.3723 240.39 75.8856C239.877 76.3988 239.478 77.0071 239.193 77.7105C238.908 78.4138 238.765 79.1837 238.765 80.0201C238.765 80.8375 238.908 81.5979 239.193 82.3012C239.497 82.9856 239.906 83.5939 240.419 84.1261C240.951 84.6394 241.569 85.0386 242.272 85.3237C242.995 85.6088 243.774 85.7514 244.61 85.7514C245.58 85.7514 246.473 85.5423 247.291 85.1241C248.127 84.7059 248.878 84.0881 249.543 83.2707L252.765 86.4358C252.157 87.2151 251.406 87.8995 250.513 88.4888C249.619 89.059 248.65 89.5058 247.604 89.8289C246.559 90.1331 245.504 90.2851 244.439 90.2851ZM259.974 90V70.0402H264.879V90H259.974ZM271.468 90L279.651 70.0402H285.269L293.338 90H288.035L286.21 85.1811H278.425L276.572 90H271.468ZM279.908 81.2747H284.755L282.36 74.8876L279.908 81.2747ZM301.609 90V74.3743H295.079V70.0402H313.043V74.3743H306.513V90H301.609ZM320.343 90V70.0402H325.247V90H320.343ZM343.641 90.3137C342.139 90.3137 340.742 90.057 339.45 89.5438C338.157 89.0115 337.026 88.2797 336.056 87.3482C335.087 86.3977 334.327 85.3047 333.775 84.0691C333.243 82.8145 332.977 81.4648 332.977 80.0201C332.977 78.5754 333.243 77.2352 333.775 75.9996C334.327 74.745 335.087 73.652 336.056 72.7205C337.026 71.7701 338.157 71.0382 339.45 70.5249C340.742 69.9927 342.139 69.7266 343.641 69.7266C345.143 69.7266 346.54 69.9927 347.833 70.5249C349.125 71.0382 350.256 71.7701 351.226 72.7205C352.195 73.652 352.946 74.745 353.478 75.9996C354.03 77.2352 354.305 78.5754 354.305 80.0201C354.305 81.4648 354.03 82.8145 353.478 84.0691C352.946 85.3047 352.195 86.3977 351.226 87.3482C350.256 88.2797 349.125 89.0115 347.833 89.5438C346.54 90.057 345.143 90.3137 343.641 90.3137ZM343.641 85.8084C344.44 85.8084 345.181 85.6659 345.865 85.3807C346.55 85.0766 347.139 84.6679 347.633 84.1546C348.146 83.6414 348.546 83.0331 348.831 82.3297C349.116 81.6074 349.258 80.8375 349.258 80.0201C349.258 79.1837 349.116 78.4138 348.831 77.7105C348.546 77.0071 348.146 76.3988 347.633 75.8856C347.139 75.3723 346.55 74.9731 345.865 74.688C345.181 74.3838 344.44 74.2318 343.641 74.2318C342.843 74.2318 342.101 74.3838 341.417 74.688C340.733 74.9731 340.134 75.3723 339.621 75.8856C339.126 76.3988 338.737 77.0071 338.452 77.7105C338.166 78.4138 338.024 79.1837 338.024 80.0201C338.024 80.8375 338.166 81.6074 338.452 82.3297C338.737 83.0331 339.126 83.6414 339.621 84.1546C340.134 84.6679 340.733 85.0766 341.417 85.3807C342.101 85.6659 342.843 85.8084 343.641 85.8084ZM362.046 90V70.0402H366.665L375.732 81.6169V70.0402H380.352V90H376.017L366.665 77.9671V90H362.046Z" fill="#626262"/>
<path d="M81.9389 194.396C77.3789 194.396 72.9709 193.902 68.7149 192.914C64.4589 192.002 60.6209 190.672 57.2009 188.924L62.6729 176.84C65.9409 178.436 69.1329 179.614 72.2489 180.374C75.3649 181.134 78.4809 181.514 81.5969 181.514C86.2329 181.514 89.7289 180.526 92.0849 178.55C94.5169 176.574 95.7329 173.61 95.7329 169.658V164.984C90.8689 168.556 85.4349 170.342 79.4309 170.342C73.8069 170.342 68.7149 169.012 64.1549 166.352C59.6709 163.616 56.0609 159.93 53.3249 155.294C50.6649 150.658 49.3349 145.528 49.3349 139.904C49.3349 134.28 50.6649 129.188 53.3249 124.628C56.0609 120.068 59.7469 116.458 64.3829 113.798C69.0189 111.062 74.1869 109.694 79.8869 109.694C82.7749 109.694 85.5869 110.112 88.3229 110.948C91.0589 111.784 93.6049 112.962 95.9609 114.482V110.606H111.351V169.886C111.351 177.714 108.805 183.756 103.713 188.012C98.6969 192.268 91.4389 194.396 81.9389 194.396ZM81.8249 157.118C84.7129 157.118 87.3349 156.662 89.6909 155.75C92.0469 154.762 94.0609 153.394 95.7329 151.646V128.39C94.0609 126.718 92.0089 125.426 89.5769 124.514C87.2209 123.526 84.6749 123.032 81.9389 123.032C78.6709 123.032 75.7449 123.792 73.1609 125.312C70.5769 126.756 68.5249 128.77 67.0049 131.354C65.4849 133.862 64.7249 136.712 64.7249 139.904C64.7249 143.172 65.4469 146.098 66.8909 148.682C68.4109 151.266 70.4629 153.318 73.0469 154.838C75.7069 156.358 78.6329 157.118 81.8249 157.118ZM129.244 170V110.606H144.862V117.218C146.762 114.634 149.042 112.658 151.702 111.29C154.362 109.922 157.364 109.238 160.708 109.238C163.596 109.314 165.762 109.77 167.206 110.606V124.286C166.066 123.754 164.812 123.374 163.444 123.146C162.076 122.842 160.67 122.69 159.226 122.69C156.186 122.69 153.412 123.45 150.904 124.97C148.396 126.49 146.382 128.656 144.862 131.468V170H129.244ZM208.211 171.14C202.283 171.14 196.887 169.772 192.023 167.036C187.235 164.3 183.435 160.614 180.623 155.978C177.811 151.342 176.405 146.136 176.405 140.36C176.405 134.584 177.735 129.378 180.395 124.742C183.131 120.106 186.817 116.42 191.453 113.684C196.089 110.948 201.257 109.58 206.957 109.58C212.657 109.58 217.711 110.986 222.119 113.798C226.527 116.61 229.985 120.41 232.493 125.198C235.077 129.986 236.369 135.42 236.369 141.5V145.604H192.365C193.049 147.96 194.151 150.088 195.671 151.988C197.267 153.888 199.205 155.37 201.485 156.434C203.841 157.498 206.349 158.03 209.009 158.03C211.669 158.03 214.101 157.612 216.305 156.776C218.585 155.94 220.523 154.762 222.119 153.242L232.379 162.59C228.731 165.554 224.969 167.72 221.093 169.088C217.293 170.456 212.999 171.14 208.211 171.14ZM192.137 134.432H220.979C220.447 132.076 219.459 130.024 218.015 128.276C216.647 126.452 214.975 125.046 212.999 124.058C211.099 122.994 208.971 122.462 206.615 122.462C204.183 122.462 201.979 122.956 200.003 123.944C198.027 124.932 196.355 126.338 194.987 128.162C193.695 129.91 192.745 132 192.137 134.432ZM281.153 171.14C275.225 171.14 269.829 169.772 264.965 167.036C260.177 164.3 256.377 160.614 253.565 155.978C250.753 151.342 249.347 146.136 249.347 140.36C249.347 134.584 250.677 129.378 253.337 124.742C256.073 120.106 259.759 116.42 264.395 113.684C269.031 110.948 274.199 109.58 279.899 109.58C285.599 109.58 290.653 110.986 295.061 113.798C299.469 116.61 302.927 120.41 305.435 125.198C308.019 129.986 309.311 135.42 309.311 141.5V145.604H265.307C265.991 147.96 267.093 150.088 268.613 151.988C270.209 153.888 272.147 155.37 274.427 156.434C276.783 157.498 279.291 158.03 281.951 158.03C284.611 158.03 287.043 157.612 289.247 156.776C291.527 155.94 293.465 154.762 295.061 153.242L305.321 162.59C301.673 165.554 297.911 167.72 294.035 169.088C290.235 170.456 285.941 171.14 281.153 171.14ZM265.079 134.432H293.921C293.389 132.076 292.401 130.024 290.957 128.276C289.589 126.452 287.917 125.046 285.941 124.058C284.041 122.994 281.913 122.462 279.557 122.462C277.125 122.462 274.921 122.956 272.945 123.944C270.969 124.932 269.297 126.338 267.929 128.162C266.637 129.91 265.687 132 265.079 134.432ZM324.58 170V110.606H340.198V115.508C344.682 111.48 350.23 109.466 356.842 109.466C361.478 109.466 365.544 110.492 369.04 112.544C372.612 114.52 375.386 117.294 377.362 120.866C379.338 124.362 380.326 128.466 380.326 133.178V170H364.708V135.458C364.708 131.582 363.606 128.542 361.402 126.338C359.198 124.058 356.196 122.918 352.396 122.918C349.736 122.918 347.38 123.45 345.328 124.514C343.276 125.502 341.566 126.946 340.198 128.846V170H324.58Z" fill="black"/>
</svg>
